<?xml version="1.0" encoding="iso-8859-1"?>
<!-- Generator: Adobe Illustrator 19.1.0, SVG Export Plug-In . SVG Version: 6.00 Build 0)  -->
<svg version="1.1" id="Capa_1" xmlns="http://www.w3.org/2000/svg" xmlns:xlink="http://www.w3.org/1999/xlink" x="0px" y="0px"
	 viewBox="0 0 399.6 399.6" style="enable-background:new 0 0 399.6 399.6;" xml:space="preserve">
<g>
	<path d="M393.802,71.25c1.42,1.6,2.09,3.74,1.83,5.87l-20.81,172.98c-0.46,3.77-3.65,6.61-7.45,6.61H95.182l4.15,34.49
		c1.78,14.75,14.32,25.88,29.18,25.88h224.13c4.14,0,7.5,3.36,7.5,7.5c0,4.14-3.36,7.5-7.5,7.5h-6.24l-6.89,13.06
		c6.39,5.72,10.43,14.03,10.43,23.26c0,17.21-13.99,31.2-31.2,31.2c-17.2,0-31.19-13.99-31.19-31.2c0-17.2,13.99-31.19,31.19-31.19
		c2.59,0,5.1,0.32,7.51,0.92l3.19-6.05h-154.74l-6.9,13.06c6.4,5.72,10.43,14.03,10.43,23.26c0,17.21-13.99,31.2-31.19,31.2
		c-17.21,0-31.2-13.99-31.2-31.2c0-17.2,13.99-31.19,31.2-31.19c2.58,0,5.1,0.32,7.5,0.92l3.2-6.05h-29.23
		c-22.44,0-41.39-16.8-44.07-39.09L53.922,39.36C52.252,25.47,40.442,15,26.462,15h-15.05c-4.15,0-7.5-3.36-7.5-7.5
		s3.35-7.5,7.5-7.5h15.05c21.57,0,39.78,16.15,42.35,37.56l3.75,31.16h315.63C390.332,68.72,392.372,69.64,393.802,71.25z
		 M360.723,241.71l19.01-157.99h-41.47l-12.3,157.99H360.723z M334.943,368.4c0-3.4-1.06-6.57-2.87-9.18l-6.69,12.69
		c-1.35,2.54-3.95,4-6.64,4c-1.18,0-2.38-0.28-3.5-0.87c-3.66-1.94-5.06-6.47-3.13-10.14l6.7-12.69c-0.02,0-0.04,0-0.07,0
		c-8.93,0-16.19,7.26-16.19,16.19c0,8.94,7.26,16.2,16.19,16.2C327.682,384.6,334.943,377.34,334.943,368.4z M310.913,241.71
		l12.3-157.99h-51.21l-4.44,157.99H310.913z M252.552,241.71l4.44-157.99h-59.89l4.45,157.99H252.552z M186.542,241.71l-4.44-157.99
		h-51.22l12.3,157.99H186.542z M163.232,368.4c0-3.4-1.06-6.57-2.87-9.18l-6.69,12.69c-1.35,2.54-3.95,4-6.64,4
		c-1.18,0-2.38-0.28-3.5-0.87c-3.66-1.94-5.06-6.47-3.13-10.14l6.71-12.69c-0.03,0-0.05,0-0.07,0c-8.93,0-16.2,7.26-16.2,16.19
		c0,8.94,7.27,16.2,16.2,16.2C155.972,384.6,163.232,377.34,163.232,368.4z M128.142,241.71l-12.3-157.99h-41.47l19.01,157.99
		H128.142z"/>
	<polygon style="fill:#df4759;" points="379.732,83.72 360.723,241.71 325.962,241.71 338.262,83.72 	"/>
	<path style="fill:#FFFFFF;" d="M332.072,359.22c1.81,2.61,2.87,5.78,2.87,9.18c0,8.94-7.26,16.2-16.2,16.2
		c-8.93,0-16.19-7.26-16.19-16.2c0-8.93,7.26-16.19,16.19-16.19c0.03,0,0.05,0,0.07,0l-6.7,12.69c-1.93,3.67-0.53,8.2,3.13,10.14
		c1.12,0.59,2.32,0.87,3.5,0.87c2.69,0,5.29-1.46,6.64-4L332.072,359.22z"/>
	<polygon style="fill:#df4759;" points="323.212,83.72 310.913,241.71 267.562,241.71 272.003,83.72 	"/>
	<polygon style="fill:#df4759;" points="256.992,83.72 252.552,241.71 201.552,241.71 197.102,83.72 	"/>
	<polygon style="fill:#df4759;" points="182.102,83.72 186.542,241.71 143.182,241.71 130.882,83.72 	"/>
	<path style="fill:#FFFFFF;" d="M160.362,359.22c1.81,2.61,2.87,5.78,2.87,9.18c0,8.94-7.26,16.2-16.19,16.2
		c-8.93,0-16.2-7.26-16.2-16.2c0-8.93,7.27-16.19,16.2-16.19c0.02,0,0.04,0,0.07,0l-6.71,12.69c-1.93,3.67-0.53,8.2,3.13,10.14
		c1.12,0.59,2.32,0.87,3.5,0.87c2.69,0,5.29-1.46,6.64-4L160.362,359.22z"/>
	<polygon style="fill:#df4759;" points="115.842,83.72 128.142,241.71 93.382,241.71 74.372,83.72 	"/>
</g>
<g>
</g>
<g>
</g>
<g>
</g>
<g>
</g>
<g>
</g>
<g>
</g>
<g>
</g>
<g>
</g>
<g>
</g>
<g>
</g>
<g>
</g>
<g>
</g>
<g>
</g>
<g>
</g>
<g>
</g>
</svg>
